<?xml version="1.0" ?><svg xmlns="http://www.w3.org/2000/svg" xmlns:xlink="http://www.w3.org/1999/xlink" version="1.1" id="Layer_1" viewBox="0 0 150 150" style="enable-background:new 0 0 150 150;" xml:space="preserve"><style type="text/css">
	.st0{fill:#F65D11;}
	.st1{fill:#FE7528;}
	.st2{fill:#FFD54F;}
	.st3{fill:#81AFFD;}
	.st4{fill:#FFF7D7;}
	.st5{fill:#502B2F;}
	.st6{fill:#F8A823;}
	.st7{fill:#F3D84D;}
	.st8{fill:#FA4402;}
	.st9{fill:#502C30;}
	.st10{fill:#A25A4E;}
	.st11{fill:#EE2643;}
	.st12{fill:#FDE2AB;}
	.st13{fill:#A15A4D;}
	.st14{fill:#782E27;}
	.st15{fill:#F1C7A3;}
	.st16{fill:#FEC45D;}
	.st17{fill:#EB8F1A;}
	.st18{fill:#FFD550;}
	.st19{fill:#F67D01;}
	.st20{fill:#F3A22C;}
	.st21{fill:#3B3B3B;}
	.st22{fill:#EFEFEF;}
	.st23{fill:#6D6B6C;}
	.st24{fill:#F3A22D;}
	.st25{fill:#F6DBCA;}
	.st26{fill:#EF8657;}
	.st27{fill:#F2C7A4;}
	.st28{fill:#EF2643;}
	.st29{fill:#6D6C6C;}
	.st30{fill:#F75D10;}
	.st31{fill:#FE7527;}
	.st32{fill:#F5DBC9;}
	.st33{fill:#FB4402;}
	.st34{fill:#CD93D7;}
	.st35{fill:#ED6935;}
	.st36{fill:#F9A824;}
	.st37{fill:#FFE38F;}
	.st38{fill:#6A9DFB;}
	.st39{fill:#FFF2DB;}
	.st40{fill:#FFFFFF;}
	.st41{fill:#525252;}
	.st42{fill:#D57E45;}
	.st43{fill:#762B29;}
	.st44{fill:#17188A;}
	.st45{fill:#FFA600;}
	.st46{fill:#C16A48;}
	.st47{fill:#FFD41D;}
	.st48{fill:#FE5BD1;}
	.st49{fill:#3B48D7;}
	.st50{fill:#FC2B99;}
	.st51{fill:#50262D;}
	.st52{fill:#F0D851;}
	.st53{fill:#A15B4C;}
	.st54{fill:#F4A12B;}
	.st55{fill:#FEE342;}
	.st56{opacity:0.6;}
	.st57{fill:#FFB232;}
</style><g id="_x36_8"><g><path class="st21" d="M41.4722366,83.2132339c-0.1023254,0.0354385-7.2273903,2.5033493-6.7873306,2.3509216    c-2.2841454,0.7739868-4.7709808-0.4388275-5.5599327-2.7244797l-5.631979-16.2704391    c-0.7923317-2.2897568,0.4219341-4.791523,2.7157993-5.5871849c0.1258221-0.0435295,7.0176811-2.4278145,6.7596703-2.3385544    c2.2934608-0.7919693,4.7952194,0.4223442,5.5871887,2.7158012l5.6323853,16.2667465    C44.9799614,79.9194946,43.7619476,82.4209442,41.4722366,83.2132339z"/></g><g><path class="st10" d="M134.6789093,78.8931961c8.6891174,2.1000061,1.9953003,14.4867706-0.4798431,18.8363647    c-3.8761444,6.8115845-9.3875885,12.7034912-15.9955673,16.9289856c-2.2063446,1.4108582-4.6771393,2.6785507-7.2932816,2.5590363    c-2.6161499-0.1195145-5.30439-2.1105347-5.3215332-4.7293549c4.5420532-1.0806046,8.591217-4.0915451,10.9336548-8.1302261    c1.951622-3.3648376,2.7054977-7.2649155,3.8333206-10.9876862    C122.1915359,87.3103485,128.6732788,77.4417343,134.6789093,78.8931961z"/></g><g><path d="M132.5147247,96.9201355c-0.5984344-4.6773911-4.1821899-7.6189575-8.7974777-7.1338882    c-0.4764709,0.0647659-0.5828247-0.6901703-0.0788727-0.7439117c4.95858-0.5318832,8.9610825,2.650032,9.618309,7.7833557    C133.3196869,97.3156738,132.5780182,97.4113007,132.5147247,96.9201355z"/></g><g><path d="M132.5161743,90.2375641c-0.2098236-1.3778-1.5131378-2.5418701-2.9055481-2.5949326    c-0.5242615-0.0197906-0.4331207-0.8133392,0.028244-0.7468414c1.7628937,0.0667038,3.3510132,1.4849091,3.6163483,3.2288284    C133.3297119,90.6134338,132.5908508,90.7267685,132.5161743,90.2375641z"/></g><g><path class="st10" d="M71.3432617,57.9161415l-4.6241455,22.6024666    c-0.2636185-0.0298462,3.1723022,0.3591766-27.8777237-3.1563644c-0.706337-0.1434784-0.9602852-1.1809616-1.3684883-2.0418243    c-1.7481155-3.5949783-2.1100426-7.5932236-1.8871651-8.4095306c0.3310051-0.3863754,0.7724876-0.5188065,1.2359238-0.4195175    c0.2980042,0.1657104,0.5628624,0.4084702,0.8387718,0.607048c1.5322113,1.0211334,3.0486298,0.8946762,4.9663353,0.5849609    C52.8684959,66.0168839,62.4368858,63.2246666,71.3432617,57.9161415z"/></g><g><path class="st10" d="M89.7391891,121.4573746c0.6059341,0.7722549,2.3527603,4.6216049,2.9587021,5.3938599    c0.2821579,0.3595428,0.2410889,0.5932617-0.2241135,0.7660065c-3.2490082,1.2062454-6.8488235,0.7793655-10.2802048,0.2933197    c-0.4851379-0.0686951-0.9877853-0.1447372-1.3972778-0.4137115c-0.4095993-0.2688828-0.6977386-0.7891998-0.5417023-1.2537003    c0.1305847-0.3886185,0.5145035-0.6222,0.7971268-0.9191437c0.5686951-0.5975647,0.7294464-1.4634247,0.865036-2.2770844"/></g><g><path class="st10" d="M101.7704315,122.1364746c0.0297623,1.4569168-0.3925858,1.7259369-1.5010529,1.8210144    c-11.7185059,0.9138565-23.1955185,0.9573364-34.0027924,0.2759094c-0.9159622-0.0552368-3.1232262,0.2096252-3.8737526-0.2648621    c-1.3023453-0.8166733-0.5297203-4.8780899-0.5407677-6.4232025c-0.0396271-9.5399399-0.7776566-19.9297791-0.0551033-29.0915527    c1.0009918-12.1721954,7.4816322-28.4110298,9.413868-34.1133919c0.3200989-0.9379234-0.364151-1.8982124-1.3463974-1.9313545    c-2.3065491-0.1102028-4.6021881-0.23172-6.8866425-0.4082031c-6.0886421-0.5036507-11.8927765-1.0120506-15.5390701-4.149662    c-3.7011871-3.0843201-4.4290886-8.9114456-0.121521-11.6433563c5.0893898-3.3499374,12.3477859-0.6640778,17.0510406-4.3371925    c1.567337-1.2141018,2.5825958-2.9798832,3.9179459-4.4255695c7.2840652-7.9462204,19.7881546-3.2116032,23.5736618,5.7609196    c2.0774307,4.919075,2.0168457,7.9184532,6.8424606,46.242012c0,0.8718567,1.0766602,6.3792953,1.3132553,10.1534805    C100.712059,100.4822159,101.5013504,111.1234818,101.7704315,122.1364746z"/></g><g><path class="st10" d="M66.7124634,128.4456787c-0.115799,1.1449585-1.5031204,1.596344-2.6360779,1.7679596    c-4.4533539,0.6493378-8.22052,0.9678955-15.6836891-0.5029449c-2.3390007-0.4438477-3.2685509-0.5701599-2.5574493-2.6387711    c0.7427063-2.0594711,3.5057907-4.1933899,3.0116959-13.128418c-0.3947487-7.1803513-3.1905518-17.6774521,2.6546364-20.8497238    c2.7846375-1.5893097,6.7128334-0.9301605,9.1495399,1.2846451c3.5196724,3.2267685,3.3628426,7.0037231,3.2967758,11.6531525    c-0.0706673,4.8376312-0.1519585,9.6852798-0.2230225,14.533226c-0.0232468,1.8347015,0.0095291,3.8557663,1.2095985,5.2343445    C65.6582031,126.6407394,66.8266678,127.3518448,66.7124634,128.4456787z"/></g><g><path class="st10" d="M99.1367188,110.7710037c0.9009857-4.8802185-1.176712-10.9384995,2.1004791-15.1452866    c1.686203-2.1645508,4.6930161-3.2046127,7.3562775-2.5444336c5.8470612,1.4492111,5.5741043,7.4017487,4.8289337,12.1465759    c-1.6824875,10.7142334-2.5747452,14.4079056-1.7049179,18.0708847c0.4281616,1.8033981,1.4057693,3.8865662,2.8002701,5.2889633    c0.7268143,0.7309113,0.3142471,1.9659271-0.710022,2.0809784c-5.4794006,0.6154785-14.4123917,0.2686615-17.4307632-0.3484955    c-0.6863556-0.1403046-1.4545517-0.5117035-1.5177765-1.3036652c-0.0627594-0.7859192,0.6643448-1.5759125,1.0895233-2.1597366    c1.7460632-2.3971176,2.5610886-5.3706741,2.7993164-8.326767    C98.9861908,115.5740204,98.59832,113.6872711,99.1367188,110.7710037z"/></g><g><path d="M48.8445778,40.9264717c-1.4656258,0.3258781-3.0584908,0.0944328-4.3598785-0.6309166    c0.2753563-1.7071991,1.3711739-3.1527061,2.8274994-4.0899734c2.098362-1.3798866,4.8024368-1.7839165,7.2969131-1.9588776    C54.8431129,36.3875885,52.4413147,40.1388168,48.8445778,40.9264717z"/></g><g><path d="M80.8861694,124.5696182l-1.4513168-26.5598984c-0.026474-0.4880295,0.7182846-0.5452499,0.7468338-0.0408936    l1.4513168,26.5598907C81.659996,125.0263748,80.9128723,125.0660248,80.8861694,124.5696182z"/></g><g><path d="M91.2113876,124.3666c-1.3281403-11.4839401,3.2307739-35.6100464,3.2770233-35.8525009    c0.0925674-0.4897919,0.826973-0.3434906,0.7341766,0.140213c-0.0457611,0.2409973-4.583252,24.2560959-3.2682571,35.6265945    C92.0111008,124.7686539,91.2687683,124.8664093,91.2113876,124.3666z"/></g><g><path d="M63.418293,118.8286209c0.1730156-16.4022141,0.3127441-17.4769516-0.2833519-19.7833557    c-0.2994156-1.1611557-1.0900688-3.276535-3.016552-4.4006882c-0.4261932-0.2480316-0.0521736-0.8962021,0.3768234-0.6455688    c1.6017532,0.9342728,2.7960091,2.6601791,3.3641701,4.8592987c0.6245728,2.4187775,0.4818802,3.3665161,0.3067169,19.9781036    C64.1613693,119.334465,63.4136009,119.3258362,63.418293,118.8286209z"/></g><g><path d="M99.5541382,118.2220001c-0.4922104-5.9839401-0.529213-12.0535583-0.1105118-18.0409088    c0.2401276-3.4451752,0.8883286-5.0484695,5.7551117-7.3797455c0.4481277-0.2118454,0.7685089,0.4603195,0.3232727,0.6747818    c-4.6306229,2.2169342-5.1115494,3.5944138-5.3325272,6.7570572c-0.4162598,5.9493713-0.3792572,11.9810181,0.1095428,17.9274673    C100.3397598,118.6529007,99.594841,118.7165604,99.5541382,118.2220001z"/></g><g><path d="M89.2503357,128.1071014c0.1621246-0.4873428,0.1509171-1.0423508-0.0311584-1.5228806    c-0.1752167-0.4625778,0.5246048-0.7279129,0.6991272-0.2648468c0.2458572,0.6475143,0.2604675,1.3666,0.0418701,2.0233688    C89.8035812,128.8139648,89.0939331,128.5763092,89.2503357,128.1071014z"/></g><g><path d="M83.703598,128.0311584c-0.0822754-0.722496,0.0102234-1.463974,0.2677689-2.1445999    c0.1752548-0.4626694,0.8737259-0.1972733,0.6991272,0.2648468c-0.2151947,0.5696259-0.2926025,1.190361-0.2239532,1.7950363    C84.5026398,128.439682,83.758522,128.5204773,83.703598,128.0311584z"/></g><g><path d="M97.5809174,130.463974c-0.1908493-0.7259064-0.097374-1.5223999,0.2565689-2.1845245    c0.2339172-0.4374161,0.8921661-0.0831604,0.6592026,0.352478c-0.2653351,0.4975739-0.3359299,1.096405-0.1923065,1.6421661    C98.4300766,130.7512665,97.7073441,130.9432831,97.5809174,130.463974z"/></g><g><path d="M105.1544342,130.6465454c-0.1100311-0.7706909-0.0871506-1.547226,0.068161-2.3076935    c0.0999069-0.4878006,0.830925-0.3330841,0.7322311,0.1499481c-0.1377792,0.6757507-0.1582336,1.3661194-0.0603714,2.0516052    C105.9642563,131.029007,105.2236938,131.1377869,105.1544342,130.6465454z"/></g><g><path d="M110.04879,130.4863586c0.1499481-0.2546234,0.1445923-0.6066132-0.0126572-0.8558807    c-0.1105194-0.1747894-0.0584259-0.4055481,0.1163559-0.5155792c0.5617523-0.3587646,1.0400848,0.9039459,0.5399246,1.7512207    C110.4416351,131.2922668,109.7967606,130.9122467,110.04879,130.4863586z"/></g><g><path d="M47.6553841,129.6426392c-0.395813-0.5520935-0.415287-1.3359222-0.0467377-1.906517    c0.2681541-0.415062,0.8964844-0.010437,0.6280441,0.4050674c-0.2025337,0.3140106-0.1913338,0.7619171,0.0262871,1.0652313    C48.5534821,129.6121826,47.9418488,130.0417786,47.6553841,129.6426392z"/></g><g><path d="M54.3623009,130.5700989l0.0715675-2.4415741c0.0152397-0.4958725,0.7617874-0.47155,0.7478104,0.0223999    l-0.0715675,2.4410858C55.094593,131.0896912,54.3482056,131.0681,54.3623009,130.5700989z"/></g><g><path d="M61.9153709,129.4001923c0.1460571-0.5569611,0.1343727-1.1669922-0.0326195-1.7176285    c-0.1440506-0.4754791,0.5724106-0.6873779,0.7156754-0.2171326c0.2098351,0.6908493,0.2234688,1.4255142,0.0404091,2.1246262    C62.5127258,130.0681763,61.79039,129.8790894,61.9153709,129.4001923z"/></g><g><path class="st25" d="M74.1937027,39.7724419c1.8311234-1.8817673,2.9332275-5.6206818-0.1656494-6.8767242    c-2.2412949-0.9084682-5.8438721,0.2277336-7.6799469,3.2527504    C63.3784103,41.0409203,70.1868973,43.8899727,74.1937027,39.7724419z"/></g><g><path d="M59.2761269,43.2506905c-0.5432739-0.4001503-0.3101311-1.2221756,0.2010727-1.0423546    c0.1815987,0.0632896,0.2833519,0.2526779,0.2414818,0.4362221c0.2075996,0.1585274,0.955265-0.0844765,1.0754623-0.6981506    c0.0956612-0.4794693,0.8292961-0.3444099,0.7341766,0.1441078C61.2921715,43.2898941,59.9045334,43.712265,59.2761269,43.2506905    z"/></g><g><path d="M71.5103073,37.0223541c0.2882538-0.6353607-0.5587158-1.1886749-1.0253143-0.6767273    c-0.3325043,0.3661003-0.8860855-0.1376762-0.5530624-0.5034103c1.0435257-1.1421471,2.8988342,0.0816879,2.2590027,1.4897766    C71.9881058,37.7804298,71.3048172,37.4730453,71.5103073,37.0223541z"/></g><g><path d="M67.5789566,32.8543854c0.0185013-0.0686455-0.0204468-0.1645546-0.0817947-0.2010689    c-0.0598831-0.0350533-0.1635818-0.0253181-0.2151871,0.0243416c-0.3621445,0.3397293-0.8721619-0.2038879-0.514122-0.5433311    c0.6749573-0.6393108,1.7753067,0.0175438,1.5326233,0.9148026    C68.1720428,33.5279465,67.4495926,33.3310471,67.5789566,32.8543854z"/></g><g><path d="M39.1553802,135.1635895c-0.8948364-0.234314-1.5110016-1.0268402-0.9518013-1.6480103    c0.199688-0.222702,0.6399384-0.4160919,0.7434273-0.5340881c0.0160675-0.0671844-0.1231728-0.2653351-0.4620247-0.3821716    c-0.6748314-0.2332153-0.9703026-0.171463-8.6523895-0.1329193c-1.7288227,0.0112-2.7181129-0.3451691-2.9006824-1.0511169    c-0.280304-1.076355,1.4560833-1.5115967,2.5589104-1.6635895l6.4780941-0.8914185    c0.4842453-0.0726471,0.5968742,0.6726837,0.1022377,0.7409821c-3.975338,0.646698-7.9035759,0.8136139-8.398737,1.5555115    c0.0335941,0.2648468,0.66115,0.5973663,2.1562824,0.5618286c7.3383865-0.0371246,8.0568085-0.1184845,8.9006844,0.1738129    c0.4902649,0.1694183,0.8554039,0.5014496,0.9527779,0.8665924c0.2089233,0.7819824-0.7277489,1.038559-0.9221039,1.2560883    c-0.0185013,0.0939636,0.1908455,0.3218079,0.584713,0.4250183c0.7778587,0.2033997,1.1786308,0.0974884,8.2098351-0.5978546    c0.4938393-0.0505219,0.5652962,0.6961823,0.0740051,0.7439117    C40.5542221,135.2781372,40.1143494,135.4140472,39.1553802,135.1635895z"/></g><g><path d="M113.5483017,136.3120728l0.30867-1.0141144c-6.8463211,1.3163757-12.479332,1.1981506-12.3792648,1.1981506    c-1.1194153,0-1.7106781-1.3917236-0.8870544-2.1801453c1.3816986-1.3256989,3.3432388-1.8948364,5.1134415-1.4897766    c0.485733,0.1114655,0.3110275,0.8416748-0.1665039,0.7293091c-1.5068207-0.3442078-3.2458649,0.1655273-4.4294052,1.2999115    c-0.3294907,0.3159943-0.086998,0.8928833,0.3695221,0.8928833c4.0644379,0,8.5169373-0.4297333,12.844696-1.3042755    c0.2808304-0.055542,0.512764,0.2069397,0.431839,0.475647l-0.3222961,1.0574493    c2.8933792-0.388504,5.7580338-1.0632935,8.5238571-2.007782c0.5212402-0.1775818,0.466835-0.9198151-0.0744858-1.0219116    c-0.5647507-0.1085663-1.1343765-0.0355377-1.6071091,0.2005768c-0.4423981,0.2206268-0.7770386-0.447403-0.3339844-0.6689301    c1.1715927-0.5839539,3.0229492-0.4926758,3.1222,0.8992157c0.0413818,0.5861816-0.3062286,1.1080933-0.8651352,1.2989349    c-2.9970856,1.0233612-6.1075974,1.7351532-9.2463531,2.1148987    C113.685936,136.8263092,113.4701004,136.5717163,113.5483017,136.3120728z"/></g><g><path d="M80.3686066,38.1719398c-0.1165314,1.7347412-0.2330627,3.4694824-0.2770081,5.2024841    c-0.0405045,1.39505,0.3104324,2.4640808,1.3830338,3.4102402c1.9619827,1.7306824,4.4881821,1.3212204,6.9271164,0.397728    c3.0634842-1.1599731,7.5544739-1.7820511,6.164444-4.8185043c-0.2241669-0.4896851-2.5218887-4.2412834-2.9180527-4.8457146    c-2.01297-3.0712128-4.5554047-5.8704033-7.5430832-8.2414093c-0.4315567-0.3373966-1.1375122-1.1176815-1.6857681-1.0002975    c-0.5493774,0.1204967-1.0391312,0.8305626-1.2494049,1.3497143    C80.7891693,30.5635376,80.8478165,30.9452953,80.3686066,38.1719398z"/></g><g><path class="st10" d="M81.0331421,37.6087875c0.3785248,5.4466248,0.5030594,6.6169548,1.073616,7.4505615    c1.3227386,1.9270821,4.7353363,1.538147,7.0446625,1.1963997c1.9910355-0.2820053,6.2215958-1.3060799,6.9701538-3.1649361    c0.4342651-1.1137581-0.1646576-2.3490715-0.8049622-3.3639259c-2.8299561-4.5005226-6.7868958-8.4769974-11.7918396-11.4388828    c-0.4734421-0.2755508-1.2789841-0.9525471-1.8061752-0.7616692c-0.5278778,0.1941109-0.916481,0.964201-1.054184,1.5071335    C80.4147644,30.0139027,80.5247955,30.3841324,81.0331421,37.6087875z"/></g><g><path d="M67.0258865,59.9960747c0.9883194-0.1489792,1.9552155-0.8880272,2.5876389-1.9776077    c0.5963974-1.0282364,0.8739014-2.2293091,1.1426468-3.3909454c0.3247299-1.4045181,0.0607224-2.0377998-1.8670883-1.9084702    c-0.2020493,0.0267754-0.3841324-0.1431389-0.3967896-0.3490753c-0.0131454-0.2064285,0.1431351-0.3841286,0.3490753-0.3967896    c0.9075012-0.0559883,2.0175323-0.0131454,2.5443039,0.8437195c0.373909,0.605648,0.2541428,1.3101273,0.0988312,1.9790688    c-0.2809143,1.2156754-0.5715637,2.4722481-1.2244339,3.5973701c-0.7560883,1.3037987-1.8943558,2.1572571-3.1231766,2.341774    C66.6496277,60.8100815,66.5350571,60.0696983,67.0258865,59.9960747z"/></g><g><path class="st3" d="M42.3191566,81.5887604c-0.1023254,0.0354462-7.2273903,2.5033493-6.7873306,2.3509293    c-2.2841492,0.7739792-4.7709827-0.4388275-5.5599346-2.7244797l-5.631979-16.2704391    c-0.7923317-2.2897606,0.421936-4.7915268,2.7158012-5.5871887c0.1258202-0.0435295,7.0176811-2.4278145,6.7596703-2.3385544    c2.293457-0.7919693,4.7952156,0.4223442,5.5871887,2.7158012l5.6323853,16.2667427    C45.8268814,78.2950287,44.6088676,80.7964706,42.3191566,81.5887604z"/></g><g><path class="st12" d="M40.7395363,77.2287903l-6.6386452,2.2974472c-1.4065552,0.4858398-2.9420967-0.2604752-3.4279385-1.6670303    l-4.2827358-12.3747253c-0.485796-1.4065552,0.260519-2.9421387,1.6670246-3.4279404l6.6386509-2.297493    c1.4065933-0.4857483,2.9421844,0.2605247,3.4279366,1.6670723l4.2827797,12.3747292    C42.8924065,75.2074051,42.1461334,76.7429962,40.7395363,77.2287903z"/></g><g><path class="st27" d="M37.3589554,66.4668655l-1.1714897,0.4174957l0.5690956,0.5694046    c0.2214355,0.22155,0.0025749,0.592514-0.2984352,0.5058289l-1.8183784-0.5236435l-4.7774315,1.7025986    c-0.4366646,0.1556168-0.9168053-0.0722122-1.0724258-0.508873l-0.4425125-1.2416763    c-0.1556206-0.4366608,0.0722103-0.9168015,0.5088749-1.0724258l7.4966373-2.6716805    c0.4366646-0.1556206,0.9168053,0.0722084,1.0724258,0.5088768l0.4425125,1.2416687    C38.0234489,65.8311005,37.79562,66.3112488,37.3589554,66.4668655z"/></g><g><g><path d="M28.2224827,60.272728l0.0968857-0.037178c0.457716-0.1749916,0.7220383,0.5157394,0.2649612,0.6911469     l-0.0968857,0.0371819C28.0300694,61.1394043,27.7653637,60.4481544,28.2224827,60.272728z"/></g></g><g><g><path d="M29.7347374,59.6988831l2.5063477-0.9631729c0.4403191-0.1680222,0.6935234,0.4950485,0.2550735,0.6636276     l-2.5063457,0.9631729C29.5506229,60.5310593,29.2955894,59.867733,29.7347374,59.6988831z"/></g></g><g><circle cx="38.3411827" cy="80.3337708" r="1.0464991"/></g><g><path d="M22.6899395,56.7005501l-2.7137299-6.7702065c-0.184309-0.45961,0.5103397-0.7371063,0.6942558-0.2784805    l2.7137299,6.7702065C23.5687618,56.8823166,22.8730888,57.1584244,22.6899395,56.7005501z"/></g><g><path d="M20.1797161,58.8363838l-5.0277538-1.5569611c-0.474329-0.1475716-0.2491293-0.8600922,0.2210321-0.7147064    l5.0277529,1.5569649C20.8721886,58.2683525,20.653944,58.9818153,20.1797161,58.8363838z"/></g><g><path d="M11.3092146,64.307663l7.7424574-1.3364182c0.5034618-0.0697632,0.6032505,0.655159,0.1275558,0.7370987    l-7.7424564,1.3364182C10.9357319,65.1227036,10.8319817,64.3898621,11.3092146,64.307663z"/></g><g><path class="st7" d="M70.9387817,18.0872993c-0.0660934-1.9547558,0.9332657-4.0900345,2.7902451-4.7040892    c1.7569046-0.5809622,3.6721725,0.3407898,5.069458,1.5539827s2.5282974,2.7422028,4.0807495,3.7492428    c3.1071472,2.0155315,7.5214157,1.7042294,10.0973434,4.3653011c2.4470062,2.5278816,2.4843597,7.0945377-0.8800812,10.5336399    c-14.4453659-9.2506695-17.3401871-6.3052998-23.9124374-7.8848934c-4.924324-1.183527-6.7369156-4.7972183-6.2139282-6.1161728    c0.3511314-0.8855305,1.6378784-1.0023651,2.4591675-0.5197239c0.8212814,0.4826393,1.3332748,1.3398876,1.9561996,2.0605927    c0.9998093,1.1567421,3.4720764,2.9907799,5.1572266,2.6284122c1.3106537-0.2818375,0.8824768-0.5862961,0.4481125-1.7577629    C71.5105515,20.700489,70.9863968,19.4957924,70.9387817,18.0872993z"/></g><g><path d="M96.8040924,64.3062057c-0.7728653,0.2950134-4.4683838,1.0612411-5.9266205,1.3023453    c-5.3586578,0.8556366-10.8262482,0.7801514-15.9474106-0.8828278c-3.9210129-1.2929726-4.9799652-2.3526726-7.0852203-3.5427437    c-0.2427673-0.1434784-0.485672-0.3972931-0.4195251-0.6731987c0.0331421-0.1545258,0.1546631-0.2759094,0.2648621-0.3753319    c0.485672-0.4413452,12.1730804,1.512104,14.7335739,1.7548676c2.5714111,0.2538147,5.164917,0.2096252,7.7254181-0.1213799    c3.9222641-0.5117264,6.168541-1.4759216,6.2685471-1.5009232c-0.0160141,0.1759605-0.0123825,0.4177742-0.0441895,0.6400566    C96.5171356,62.032795,96.6604843,63.1694336,96.8040924,64.3062057z"/></g><g><ellipse cx="81.365921" cy="68.1258469" rx="2.6524003" ry="3.688494"/></g><g><ellipse class="st7" cx="80.5340576" cy="67.8074646" rx="2.6524003" ry="3.688494"/></g><g><path class="st7" d="M96.4950485,58.8764267c-0.0220947,0.4634399-0.0552368,0.9270134-0.0773315,1.3905869    c-0.0724564,0.7960892,0.0558701,1.0898819-0.5849609,1.4016342c-0.8495941,0.4168701-4.3325958,1.4679642-5.771965,1.8429756    c-5.2214432,1.3611336-10.6958694,1.8022499-15.9584503,0.6180992c-3.8538818-0.8302803-5.9437027-2.2449379-7.3832245-2.8695488    c-0.2648621-0.1103363-0.5297241-0.3420563-0.485672-0.6179619c0.0198059-0.2967873,1.6928253-2.0232773,2.4280701-2.2955055    c1.083725-0.4550018,3.5091476,1.0615883,4.9884338,1.3574448c6.5842972,1.5664101,13.7568283,1.1859932,20.8916473-1.743824    c0.353241-0.1543884,1.0042114-0.6621513,1.3795395-0.5297203c0.0110474,0,0.0110474,0,0.0220947,0.0110474    C96.4935989,57.6252975,96.5365448,58.2959747,96.4950485,58.8764267z"/></g><g><path d="M79.9942474,65.8889694c0.3216171-0.3736801,0.8902206,0.1139297,0.5657272,0.4888    c-0.9486237,1.0957489-0.297699,2.6853714,0.5584259,2.4240494c0.1952286-0.0608521,0.345665-0.2828598,0.309639-0.4571533    c-0.0293503-0.1391602-0.2319717-0.2546234-0.3442078-0.1966934c-0.4330215,0.2368317-0.7922058-0.4212265-0.3563766-0.6572495    c0.5624771-0.3054428,1.302803,0.0830231,1.4328079,0.7015533c0.1148987,0.5535583-0.2526703,1.1470337-0.8198624,1.3232727    C79.6954346,70.0291977,78.5702972,67.5350876,79.9942474,65.8889694z"/></g></g></svg>