<svg version="1.0" viewBox="0 0 91.8 92.6" xml:space="preserve" xmlns="http://www.w3.org/2000/svg"><path d="M45.9 3.6c-23.5 0-42.5 19-42.5 42.5s19 42.5 42.5 42.5 42.5-19 42.5-42.5c0-23.4-19-42.5-42.5-42.5zm-2.2 17.5H48c.5 0 .9.4.9.9l-.6 34.5c0 .5-.4.9-.9.9h-3c-.5 0-.9-.4-.9-.9L42.8 22c0-.5.4-.9.9-.9zm4.9 50.1c-.8.8-1.7 1.1-2.7 1.1-1 0-1.9-.3-2.6-1-.8-.7-1.3-1.8-1.3-2.9 0-1 .4-1.9 1.1-2.7.7-.8 1.8-1.2 2.9-1.2 1.2 0 2.2.5 3 1.4.5.6.8 1.3.9 2.1 0 1.3-.4 2.3-1.3 3.2z" fill="#d45a57" class="fill-1e1e1e"></path></svg>